<mxfile host="app.diagrams.net" modified="2020-08-19T10:56:05.691Z" agent="5.0 (Windows NT 10.0; Win64; x64) AppleWebKit/537.36 (KHTML, like Gecko) Chrome/84.0.4147.125 Safari/537.36" etag="7CW9HhI2D3sHrXi9lZkf" version="13.6.0" type="github">
  <diagram id="prtHgNgQTEPvFCAcTncT" name="Page-1">
    <mxGraphModel dx="2076" dy="1096" grid="1" gridSize="10" guides="1" tooltips="1" connect="1" arrows="1" fold="1" page="1" pageScale="1" pageWidth="827" pageHeight="1169" math="0" shadow="0">
      <root>
        <mxCell id="0" />
        <mxCell id="1" parent="0" />
        <mxCell id="dNxyNK7c78bLwvsdeMH5-19" value="Предзаказ&lt;br&gt;" style="swimlane;html=1;childLayout=stackLayout;resizeParent=1;resizeParentMax=0;horizontal=0;startSize=20;horizontalStack=0;" parent="1" vertex="1">
          <mxGeometry x="110" y="200" width="1160" height="1020" as="geometry">
            <mxRectangle x="80" y="120" width="30" height="80" as="alternateBounds" />
          </mxGeometry>
        </mxCell>
        <mxCell id="dNxyNK7c78bLwvsdeMH5-20" value="АРМ КЦ" style="swimlane;html=1;startSize=20;horizontal=0;" parent="dNxyNK7c78bLwvsdeMH5-19" vertex="1">
          <mxGeometry x="20" width="1140" height="210" as="geometry" />
        </mxCell>
        <mxCell id="dNxyNK7c78bLwvsdeMH5-25" value="" style="edgeStyle=orthogonalEdgeStyle;rounded=0;orthogonalLoop=1;jettySize=auto;html=1;" parent="dNxyNK7c78bLwvsdeMH5-20" source="dNxyNK7c78bLwvsdeMH5-23" target="dNxyNK7c78bLwvsdeMH5-24" edge="1">
          <mxGeometry relative="1" as="geometry" />
        </mxCell>
        <mxCell id="l-QhswC7FGs499EKS-Dz-10" value="да" style="edgeStyle=orthogonalEdgeStyle;rounded=0;orthogonalLoop=1;jettySize=auto;html=1;entryX=0.5;entryY=0;entryDx=0;entryDy=0;" edge="1" parent="dNxyNK7c78bLwvsdeMH5-20" source="l-QhswC7FGs499EKS-Dz-3" target="l-QhswC7FGs499EKS-Dz-9">
          <mxGeometry x="0.6364" y="-15" relative="1" as="geometry">
            <mxPoint as="offset" />
          </mxGeometry>
        </mxCell>
        <mxCell id="l-QhswC7FGs499EKS-Dz-3" value="Заказ подтвержден ?" style="shape=hexagon;html=1;whiteSpace=wrap;perimeter=hexagonPerimeter;strokeWidth=4;rounded=0;" vertex="1" parent="dNxyNK7c78bLwvsdeMH5-20">
          <mxGeometry x="450" y="35" width="110" height="60" as="geometry" />
        </mxCell>
        <mxCell id="l-QhswC7FGs499EKS-Dz-52" value="&lt;font color=&quot;#000000&quot;&gt;&lt;br&gt;&lt;/font&gt;" style="shape=mxgraph.bpmn.shape;html=1;verticalLabelPosition=bottom;verticalAlign=top;align=center;perimeter=ellipsePerimeter;outlineConnect=0;outline=end;symbol=terminate;rounded=0;sketch=0;" vertex="1" parent="dNxyNK7c78bLwvsdeMH5-20">
          <mxGeometry x="620" y="40" width="50" height="50" as="geometry" />
        </mxCell>
        <mxCell id="l-QhswC7FGs499EKS-Dz-24" value="данные" style="shape=document;whiteSpace=wrap;html=1;boundedLbl=1;rounded=0;sketch=0;" vertex="1" parent="dNxyNK7c78bLwvsdeMH5-20">
          <mxGeometry x="100" y="45" width="50" height="40" as="geometry" />
        </mxCell>
        <mxCell id="dNxyNK7c78bLwvsdeMH5-23" value="Заказ на сайте" style="ellipse;whiteSpace=wrap;html=1;" parent="dNxyNK7c78bLwvsdeMH5-20" vertex="1">
          <mxGeometry x="30" y="40" width="50" height="50" as="geometry" />
        </mxCell>
        <mxCell id="l-QhswC7FGs499EKS-Dz-22" value="" style="endArrow=classic;html=1;entryX=0;entryY=0.5;entryDx=0;entryDy=0;" edge="1" parent="dNxyNK7c78bLwvsdeMH5-20" source="l-QhswC7FGs499EKS-Dz-81" target="l-QhswC7FGs499EKS-Dz-3">
          <mxGeometry width="50" height="50" relative="1" as="geometry">
            <mxPoint x="120" y="-5" as="sourcePoint" />
            <mxPoint x="470.71067811865476" y="185" as="targetPoint" />
          </mxGeometry>
        </mxCell>
        <mxCell id="dNxyNK7c78bLwvsdeMH5-24" value="Заказ ИМ" style="rounded=0;whiteSpace=wrap;html=1;fontFamily=Helvetica;fontSize=12;align=center;" parent="dNxyNK7c78bLwvsdeMH5-20" vertex="1">
          <mxGeometry x="170" y="35" width="80" height="60" as="geometry" />
        </mxCell>
        <mxCell id="l-QhswC7FGs499EKS-Dz-7" style="edgeStyle=orthogonalEdgeStyle;rounded=0;orthogonalLoop=1;jettySize=auto;html=1;exitX=1;exitY=0.5;exitDx=0;exitDy=0;entryX=0;entryY=0.5;entryDx=0;entryDy=0;" edge="1" parent="dNxyNK7c78bLwvsdeMH5-20">
          <mxGeometry relative="1" as="geometry">
            <mxPoint x="590" y="64.81132075471697" as="sourcePoint" />
            <mxPoint x="590" y="65" as="targetPoint" />
          </mxGeometry>
        </mxCell>
        <mxCell id="l-QhswC7FGs499EKS-Dz-8" value="Нет" style="edgeLabel;html=1;align=center;verticalAlign=middle;resizable=0;points=[];" vertex="1" connectable="0" parent="l-QhswC7FGs499EKS-Dz-7">
          <mxGeometry x="-0.2048" y="1" relative="1" as="geometry">
            <mxPoint as="offset" />
          </mxGeometry>
        </mxCell>
        <mxCell id="l-QhswC7FGs499EKS-Dz-82" value="" style="endArrow=classic;html=1;" edge="1" parent="dNxyNK7c78bLwvsdeMH5-20" source="l-QhswC7FGs499EKS-Dz-3" target="l-QhswC7FGs499EKS-Dz-52">
          <mxGeometry width="50" height="50" relative="1" as="geometry">
            <mxPoint x="420" y="130" as="sourcePoint" />
            <mxPoint x="470" y="80" as="targetPoint" />
          </mxGeometry>
        </mxCell>
        <mxCell id="l-QhswC7FGs499EKS-Dz-9" value="Список заказов покупателей&amp;nbsp;" style="rounded=0;whiteSpace=wrap;html=1;" vertex="1" parent="dNxyNK7c78bLwvsdeMH5-20">
          <mxGeometry x="445" y="140" width="120" height="60" as="geometry" />
        </mxCell>
        <mxCell id="l-QhswC7FGs499EKS-Dz-81" value="Форма работы с поекупателем&amp;nbsp;" style="rounded=0;whiteSpace=wrap;html=1;sketch=0;" vertex="1" parent="dNxyNK7c78bLwvsdeMH5-20">
          <mxGeometry x="290" y="35" width="120" height="60" as="geometry" />
        </mxCell>
        <mxCell id="l-QhswC7FGs499EKS-Dz-87" value="" style="endArrow=classic;html=1;entryX=0;entryY=0.5;entryDx=0;entryDy=0;" edge="1" parent="dNxyNK7c78bLwvsdeMH5-20" source="dNxyNK7c78bLwvsdeMH5-24" target="l-QhswC7FGs499EKS-Dz-81">
          <mxGeometry width="50" height="50" relative="1" as="geometry">
            <mxPoint x="360" y="255" as="sourcePoint" />
            <mxPoint x="560" y="255" as="targetPoint" />
          </mxGeometry>
        </mxCell>
        <mxCell id="dNxyNK7c78bLwvsdeMH5-21" value="АРМ Снабженца&amp;nbsp;" style="swimlane;html=1;startSize=20;horizontal=0;" parent="dNxyNK7c78bLwvsdeMH5-19" vertex="1">
          <mxGeometry x="20" y="210" width="1140" height="170" as="geometry" />
        </mxCell>
        <mxCell id="l-QhswC7FGs499EKS-Dz-12" value="Своз на ЦС" style="whiteSpace=wrap;html=1;rounded=0;" vertex="1" parent="dNxyNK7c78bLwvsdeMH5-21">
          <mxGeometry x="445" y="20" width="120" height="60" as="geometry" />
        </mxCell>
        <mxCell id="l-QhswC7FGs499EKS-Dz-88" value="Дата старта продаж" style="shape=note;whiteSpace=wrap;size=16;html=1;dropTarget=0;rounded=0;sketch=0;" vertex="1" parent="dNxyNK7c78bLwvsdeMH5-21">
          <mxGeometry x="485" y="100" width="40" height="60" as="geometry" />
        </mxCell>
        <mxCell id="l-QhswC7FGs499EKS-Dz-89" value="" style="html=1;shape=singleArrow;arrowWidth=0.4;arrowSize=0.4;outlineConnect=0;" vertex="1" parent="l-QhswC7FGs499EKS-Dz-88">
          <mxGeometry width="14" height="14" relative="1" as="geometry">
            <mxPoint x="2" y="2" as="offset" />
          </mxGeometry>
        </mxCell>
        <mxCell id="l-QhswC7FGs499EKS-Dz-90" value="" style="html=1;whiteSpace=wrap;shape=parallelMarker;outlineConnect=0;" vertex="1" parent="l-QhswC7FGs499EKS-Dz-88">
          <mxGeometry x="0.5" y="1" width="14" height="14" relative="1" as="geometry">
            <mxPoint x="-7" y="-14" as="offset" />
          </mxGeometry>
        </mxCell>
        <mxCell id="l-QhswC7FGs499EKS-Dz-13" value="" style="edgeStyle=orthogonalEdgeStyle;rounded=0;orthogonalLoop=1;jettySize=auto;html=1;" edge="1" parent="dNxyNK7c78bLwvsdeMH5-19" source="l-QhswC7FGs499EKS-Dz-9" target="l-QhswC7FGs499EKS-Dz-12">
          <mxGeometry relative="1" as="geometry" />
        </mxCell>
        <mxCell id="l-QhswC7FGs499EKS-Dz-15" value="" style="edgeStyle=orthogonalEdgeStyle;rounded=0;orthogonalLoop=1;jettySize=auto;html=1;" edge="1" parent="dNxyNK7c78bLwvsdeMH5-19" source="l-QhswC7FGs499EKS-Dz-12" target="l-QhswC7FGs499EKS-Dz-14">
          <mxGeometry relative="1" as="geometry" />
        </mxCell>
        <mxCell id="dNxyNK7c78bLwvsdeMH5-22" value="АРМ ТСД" style="swimlane;html=1;startSize=20;horizontal=0;" parent="dNxyNK7c78bLwvsdeMH5-19" vertex="1">
          <mxGeometry x="20" y="380" width="1140" height="640" as="geometry">
            <mxRectangle x="20" y="310" width="720" height="20" as="alternateBounds" />
          </mxGeometry>
        </mxCell>
        <mxCell id="l-QhswC7FGs499EKS-Dz-34" value="" style="edgeStyle=orthogonalEdgeStyle;curved=0;rounded=1;sketch=0;orthogonalLoop=1;jettySize=auto;html=1;" edge="1" parent="dNxyNK7c78bLwvsdeMH5-22" source="l-QhswC7FGs499EKS-Dz-14" target="l-QhswC7FGs499EKS-Dz-33">
          <mxGeometry relative="1" as="geometry" />
        </mxCell>
        <mxCell id="l-QhswC7FGs499EKS-Dz-14" value="Перемещения на магазин&amp;nbsp;" style="whiteSpace=wrap;html=1;rounded=0;" vertex="1" parent="dNxyNK7c78bLwvsdeMH5-22">
          <mxGeometry x="445" y="40" width="120" height="60" as="geometry" />
        </mxCell>
        <mxCell id="l-QhswC7FGs499EKS-Dz-93" value="Доставка ИМ" style="rounded=0;whiteSpace=wrap;html=1;sketch=0;" vertex="1" parent="dNxyNK7c78bLwvsdeMH5-22">
          <mxGeometry x="445" y="190" width="120" height="60" as="geometry" />
        </mxCell>
        <mxCell id="l-QhswC7FGs499EKS-Dz-31" value="АРМ Продавца" style="swimlane;html=1;startSize=20;horizontal=0;" vertex="1" parent="dNxyNK7c78bLwvsdeMH5-22">
          <mxGeometry y="310" width="1140" height="330" as="geometry">
            <mxRectangle y="130" width="30" height="170" as="alternateBounds" />
          </mxGeometry>
        </mxCell>
        <mxCell id="l-QhswC7FGs499EKS-Dz-36" value="" style="edgeStyle=orthogonalEdgeStyle;curved=0;rounded=1;sketch=0;orthogonalLoop=1;jettySize=auto;html=1;" edge="1" parent="l-QhswC7FGs499EKS-Dz-31" source="l-QhswC7FGs499EKS-Dz-53" target="l-QhswC7FGs499EKS-Dz-35">
          <mxGeometry relative="1" as="geometry" />
        </mxCell>
        <mxCell id="l-QhswC7FGs499EKS-Dz-41" style="edgeStyle=orthogonalEdgeStyle;curved=0;rounded=1;sketch=0;orthogonalLoop=1;jettySize=auto;html=1;entryX=0;entryY=0.5;entryDx=0;entryDy=0;" edge="1" parent="l-QhswC7FGs499EKS-Dz-31" source="l-QhswC7FGs499EKS-Dz-35" target="l-QhswC7FGs499EKS-Dz-40">
          <mxGeometry relative="1" as="geometry" />
        </mxCell>
        <mxCell id="l-QhswC7FGs499EKS-Dz-50" value="Да" style="edgeStyle=orthogonalEdgeStyle;curved=0;rounded=1;sketch=0;orthogonalLoop=1;jettySize=auto;html=1;" edge="1" parent="l-QhswC7FGs499EKS-Dz-31" source="l-QhswC7FGs499EKS-Dz-35" target="l-QhswC7FGs499EKS-Dz-49">
          <mxGeometry relative="1" as="geometry" />
        </mxCell>
        <mxCell id="l-QhswC7FGs499EKS-Dz-43" value="Нет" style="edgeLabel;html=1;align=center;verticalAlign=middle;resizable=0;points=[];" vertex="1" connectable="0" parent="l-QhswC7FGs499EKS-Dz-31">
          <mxGeometry x="900.001365775286" y="-9.996826143482906" as="geometry">
            <mxPoint x="55" y="74" as="offset" />
          </mxGeometry>
        </mxCell>
        <mxCell id="l-QhswC7FGs499EKS-Dz-33" value="Поступление товара&amp;nbsp;" style="whiteSpace=wrap;html=1;rounded=0;" vertex="1" parent="l-QhswC7FGs499EKS-Dz-31">
          <mxGeometry x="445" y="50" width="120" height="60" as="geometry" />
        </mxCell>
        <mxCell id="l-QhswC7FGs499EKS-Dz-53" value="событие" style="shape=document;whiteSpace=wrap;html=1;boundedLbl=1;rounded=0;sketch=0;" vertex="1" parent="l-QhswC7FGs499EKS-Dz-31">
          <mxGeometry x="680" y="60" width="60" height="40" as="geometry" />
        </mxCell>
        <mxCell id="l-QhswC7FGs499EKS-Dz-35" value="Товар продан" style="rhombus;whiteSpace=wrap;html=1;rounded=0;" vertex="1" parent="l-QhswC7FGs499EKS-Dz-31">
          <mxGeometry x="785" y="40" width="80" height="80" as="geometry" />
        </mxCell>
        <mxCell id="l-QhswC7FGs499EKS-Dz-40" value="&lt;font color=&quot;#000000&quot;&gt;&lt;br&gt;&lt;/font&gt;" style="shape=mxgraph.bpmn.shape;html=1;verticalLabelPosition=bottom;verticalAlign=top;align=center;perimeter=ellipsePerimeter;outlineConnect=0;outline=end;symbol=terminate;rounded=0;sketch=0;" vertex="1" parent="l-QhswC7FGs499EKS-Dz-31">
          <mxGeometry x="1040" y="55" width="50" height="50" as="geometry" />
        </mxCell>
        <mxCell id="l-QhswC7FGs499EKS-Dz-80" value="" style="edgeStyle=orthogonalEdgeStyle;curved=0;rounded=1;sketch=0;orthogonalLoop=1;jettySize=auto;html=1;" edge="1" parent="l-QhswC7FGs499EKS-Dz-31" source="l-QhswC7FGs499EKS-Dz-33" target="l-QhswC7FGs499EKS-Dz-53">
          <mxGeometry relative="1" as="geometry">
            <mxPoint x="490" y="889.9999999999998" as="sourcePoint" />
            <mxPoint x="610.0000000000002" y="869.9999999999998" as="targetPoint" />
          </mxGeometry>
        </mxCell>
        <mxCell id="l-QhswC7FGs499EKS-Dz-42" value="Возварт" style="text;html=1;strokeColor=none;fillColor=none;align=center;verticalAlign=middle;whiteSpace=wrap;rounded=0;sketch=0;" vertex="1" parent="l-QhswC7FGs499EKS-Dz-31">
          <mxGeometry x="1045" y="110" width="40" height="20" as="geometry" />
        </mxCell>
        <mxCell id="l-QhswC7FGs499EKS-Dz-49" value="&lt;font color=&quot;#000000&quot;&gt;&lt;br&gt;&lt;/font&gt;" style="shape=mxgraph.bpmn.shape;html=1;verticalLabelPosition=bottom;verticalAlign=top;align=center;perimeter=ellipsePerimeter;outlineConnect=0;outline=end;symbol=terminate;rounded=0;sketch=0;" vertex="1" parent="l-QhswC7FGs499EKS-Dz-31">
          <mxGeometry x="800" y="150" width="50" height="50" as="geometry" />
        </mxCell>
        <mxCell id="l-QhswC7FGs499EKS-Dz-86" style="edgeStyle=orthogonalEdgeStyle;curved=0;rounded=1;sketch=0;orthogonalLoop=1;jettySize=auto;html=1;exitX=0.5;exitY=1;exitDx=0;exitDy=0;" edge="1" parent="l-QhswC7FGs499EKS-Dz-31" source="l-QhswC7FGs499EKS-Dz-33" target="l-QhswC7FGs499EKS-Dz-33">
          <mxGeometry relative="1" as="geometry" />
        </mxCell>
      </root>
    </mxGraphModel>
  </diagram>
</mxfile>
